<?xml version="1.0" encoding="utf-8"?>
<!-- Generator: Adobe Illustrator 16.0.3, SVG Export Plug-In . SVG Version: 6.00 Build 0)  -->
<!DOCTYPE svg PUBLIC "-//W3C//DTD SVG 1.1//EN" "http://www.w3.org/Graphics/SVG/1.1/DTD/svg11.dtd">
<svg version="1.1" id="Ebene_1" xmlns="http://www.w3.org/2000/svg" xmlns:xlink="http://www.w3.org/1999/xlink" x="0px" y="0px"
	 width="566.93px" height="62.993px" viewBox="0 0 566.93 62.993" enable-background="new 0 0 566.93 62.993" xml:space="preserve">
<g id="Ebene_1_1_">
	<g>
		<path d="M201.575,12.597H176.38v50.396h-12.599V12.597h-25.198V0h62.991L201.575,12.597L201.575,12.597z"/>
		<path d="M277.166,25.196h-12.601v12.599h-37.794v25.196h-12.598V0h50.392v12.598h12.601V25.196z M264.565,25.196V12.597h-37.794
			v12.601L264.565,25.196L264.565,25.196z M277.166,62.991h-12.601V37.794h12.601V62.991z"/>
		<path d="M62.992,25.196h-12.6v12.599H12.599v25.196H0V0h50.392v12.598h12.6V25.196z M50.392,25.196V12.597H12.599v12.601
			L50.392,25.196L50.392,25.196z M62.992,62.991h-12.6V37.794h12.6V62.991z"/>
		<path d="M352.755,50.392h-12.598v12.6h-37.796v-12.6h-12.598V12.597h12.598V0h37.796v12.598h12.598V50.392L352.755,50.392z
			 M340.157,50.392V12.597h-37.796v37.796L340.157,50.392L340.157,50.392z"/>
		<path d="M428.346,25.196h-12.598v12.599h-37.796v25.196h-12.599V0h50.395v12.598h12.598V25.196z M415.748,25.196V12.597h-37.796
			v12.601L415.748,25.196L415.748,25.196z"/>
		<path d="M566.93,62.991h-50.395V0h50.395v12.598h-37.795v12.601h25.195v12.599h-25.195v12.599h37.795V62.991z"/>
		<path d="M125.985,62.991H75.591V0h50.394v12.598H88.19v12.601h25.196v12.599H88.19v12.599h37.795V62.991z"/>
		<polygon points="491.338,12.599 503.938,12.599 503.938,0 491.338,0 478.739,0 476.477,0 466.14,0 453.544,0 440.945,0 
			440.945,12.599 453.544,12.599 466.14,12.599 466.14,50.392 440.945,50.392 440.945,62.991 466.14,62.991 478.739,62.991 
			503.938,62.991 503.938,50.392 478.739,50.392 478.739,12.599 		"/>
	</g>
</g>
<g id="Ebene_2">
</g>
</svg>
