<?xml version="1.0" encoding="utf-8"?>
<!-- Generator: Adobe Illustrator 14.0.0, SVG Export Plug-In . SVG Version: 6.00 Build 43363)  -->
<!DOCTYPE svg PUBLIC "-//W3C//DTD SVG 1.1//EN" "http://www.w3.org/Graphics/SVG/1.1/DTD/svg11.dtd">
<svg version="1.1" id="Layer_1" xmlns="http://www.w3.org/2000/svg" xmlns:xlink="http://www.w3.org/1999/xlink" x="0px" y="0px"
	 width="440.916px" height="126px" viewBox="0 0 440.916 126" enable-background="new 0 0 440.916 126" xml:space="preserve">
<path fill="#000000" d="M422.917,26.363h-2.232v7.056h-1.668v-7.056h-2.23v-1.488h6.132L422.917,26.363L422.917,26.363z"/>
<path fill="#000000" d="M431.763,33.419h-1.668v-4.98l-1.633,3.24h-1.128l-1.644-3.24v4.98h-1.668v-8.544h1.638l2.223,4.62
	l2.212-4.62h1.668V33.419z"/>
<path fill="#000000" d="M269.918,48.179c0,3.129-1.153,5.584-3.461,7.363c-2.308,1.782-5.242,2.672-8.804,2.672
	c-5.172,0-9.198-1.455-12.078-4.367l4.181-4.181c1.858,1.858,4.521,2.787,7.991,2.787c3.902,0,5.854-1.362,5.854-4.088
	c0-1.239-0.324-2.161-0.976-2.765s-1.642-0.999-2.974-1.185l-3.995-0.557c-5.854-0.806-8.78-3.887-8.78-9.245
	c0-3.005,1.037-5.429,3.111-7.271c2.074-1.843,4.88-2.765,8.408-2.765c4.461,0,8.021,1.285,10.688,3.855l-4.089,4.042
	c-1.579-1.517-3.841-2.276-6.783-2.276c-1.642,0-2.903,0.396-3.786,1.185s-1.322,1.789-1.322,2.996c0,0.961,0.349,1.766,1.045,2.416
	c0.695,0.651,1.694,1.069,2.996,1.255l3.901,0.557c2.817,0.404,4.925,1.255,6.318,2.556
	C269.067,42.775,269.918,45.112,269.918,48.179z"/>
<path fill="#000000" d="M302.235,30.618h-8.643v27.317h-6.457V30.618h-8.641v-5.761h23.738v5.761H302.235z"/>
<path fill="#000000" d="M334.272,57.936h-21.787V24.857h21.787v5.761h-15.33v7.759h13.056v5.761h-13.056v8.037h15.33V57.936z"/>
<path fill="#000000" d="M373.142,57.936h-6.735l-1.951-5.854h-11.754l-1.996,5.854h-6.737L356,24.857h5.063L373.142,57.936z
	 M362.737,46.646l-4.043-12.032l-4.182,12.032H362.737z"/>
<path fill="#000000" d="M412.194,57.936h-6.457v-19.28l-6.318,12.543h-4.365l-6.365-12.543v19.28h-6.457V24.857h6.338l8.607,17.887
	l8.563-17.887h6.457v33.079H412.194z"/>
<path fill="#000000" d="M202.241,11.896c-16.606,0-30.122,13.517-30.122,30.125c0,0.127,0.009,0.261,0.009,0.391l-19.414,28.141
	c-3.137-0.133-6.297,0.41-9.292,1.648c-1.31,0.539-2.548,1.202-3.708,1.959L52.25,37.995c-1.471-6.81-6.134-12.814-13.032-15.686
	c-11.196-4.666-24.101,0.644-28.766,11.84c-4.661,11.192,0.652,24.101,11.846,28.764c5.419,2.252,11.403,2.265,16.834,0.03
	c1.25-0.514,2.435-1.141,3.549-1.869l87.661,36.247c1.511,6.737,6.154,12.663,12.999,15.519
	c11.195,4.664,24.096-0.652,28.756-11.851c1.216-2.904,1.776-5.976,1.691-9.03l27.776-19.823c0.226,0.012,0.451,0.012,0.677,0.012
	c16.616,0,30.126-13.513,30.126-30.125C232.367,25.414,218.857,11.896,202.241,11.896z M36.085,31.311
	c-6.368-2.649-13.683,0.362-16.336,6.729c-2.654,6.369,0.359,13.685,6.727,16.335l10.063,4.158c-1.891,0.694-3.86,1.042-5.824,1.042
	c-2.197,0-4.393-0.43-6.485-1.304c-6.506-2.708-10.44-9.036-10.44-15.686c0-2.169,0.425-4.375,1.308-6.505
	c3.594-8.63,13.55-12.73,22.184-9.135c4.063,1.696,7.105,4.806,8.833,8.517L36.085,31.311z M167.458,99.056
	c-3.594,8.643-13.551,12.738-22.187,9.14c-3.988-1.664-6.993-4.693-8.74-8.322l9.82,4.064c1.565,0.656,3.195,0.96,4.796,0.96
	c4.892,0,9.536-2.889,11.536-7.691c2.654-6.364-0.359-13.68-6.729-16.329l-10.132-4.2c3.905-1.468,8.352-1.539,12.505,0.191
	c4.186,1.747,7.438,5.013,9.167,9.209C169.213,90.266,169.206,94.879,167.458,99.056z M202.241,62.094
	c-11.06,0-20.073-9.003-20.073-20.073c0-11.067,9.014-20.074,20.073-20.074c11.075,0,20.074,9.006,20.074,20.074
	C222.315,53.091,213.316,62.094,202.241,62.094z"/>
<path fill="#000000" d="M202.273,26.91c-8.325,0-15.071,6.75-15.071,15.074c0,8.332,6.746,15.082,15.071,15.082
	c8.332,0,15.085-6.75,15.085-15.082C217.358,33.66,210.605,26.91,202.273,26.91z"/>
</svg>
