<?xml version="1.0" encoding="utf-8"?>
<!-- Generator: Adobe Illustrator 16.0.3, SVG Export Plug-In . SVG Version: 6.00 Build 0)  -->
<!DOCTYPE svg PUBLIC "-//W3C//DTD SVG 1.1//EN" "http://www.w3.org/Graphics/SVG/1.1/DTD/svg11.dtd">
<svg version="1.1"
	 id="svg4139" xmlns:inkscape="http://www.inkscape.org/namespaces/inkscape" xmlns:sodipodi="http://sodipodi.sourceforge.net/DTD/sodipodi-0.dtd" xmlns:svg="http://www.w3.org/2000/svg" xmlns:rdf="http://www.w3.org/1999/02/22-rdf-syntax-ns#" xmlns:cc="http://creativecommons.org/ns#" xmlns:dc="http://purl.org/dc/elements/1.1/" inkscape:version="0.48.0 r9654" sodipodi:docname="SG-1000_Logo.svg"
	 xmlns="http://www.w3.org/2000/svg" xmlns:xlink="http://www.w3.org/1999/xlink" x="0px" y="0px" width="566.929px"
	 height="81.416px" viewBox="0 0 566.929 81.416" enable-background="new 0 0 566.929 81.416" xml:space="preserve">
<sodipodi:namedview  id="base" pagecolor="#ffffff" bordercolor="#666666" borderopacity="1.0" inkscape:zoom="1.0787109" inkscape:cx="350" inkscape:cy="114.59132" showgrid="false" inkscape:window-width="1680" inkscape:pageshadow="2" inkscape:pageopacity="0.0" inkscape:window-maximized="1" inkscape:window-y="-8" inkscape:window-height="988" inkscape:window-x="-8" inkscape:document-units="mm" inkscape:current-layer="layer1">
	</sodipodi:namedview>
<g id="layer1" transform="translate(0,-1017.3622)" inkscape:label="Layer 1" inkscape:groupmode="layer">
	<g id="text4145">
		<path id="path6759" fill="#FF0000" d="M75.796,1082.521c0,4.859-1.474,8.781-4.423,11.771s-6.935,4.484-11.955,4.484H1.318
			v-16.258h58.101v-16.26H16.142c-4.781,0-8.668-1.516-11.656-4.545C1.497,1058.689,0,1054.783,0,1050.001v-16.381
			c0-2.31,0.439-4.461,1.316-6.454c0.877-1.992,2.052-3.705,3.525-5.141c1.475-1.435,3.188-2.57,5.142-3.408
			c1.953-0.836,4.005-1.255,6.158-1.255h54.157v16.257H16.142V1050h43.276c2.313,0,4.462,0.419,6.456,1.255s3.728,1.972,5.201,3.406
			c1.474,1.436,2.63,3.148,3.466,5.141c0.836,1.991,1.255,4.146,1.255,6.457V1082.521z"/>
		<path id="path6761" fill="#FF0000" d="M170.248,1098.779h-65.154c-10.84,0-16.262-5.422-16.26-16.258v-48.9
			c-0.001-2.31,0.438-4.463,1.315-6.454c0.877-1.993,2.052-3.707,3.526-5.141c1.476-1.435,3.188-2.571,5.142-3.408
			c1.95-0.836,4.044-1.255,6.276-1.255H167.5v16.257h-62.406v48.899h48.775v-16.26H121.47v-16.259h48.777V1098.779z"/>
		<path id="path6763" fill="#FF0000" d="M231.417,1066.262h-48.78v-16.26h48.78V1066.262z"/>
		<path id="path6765" fill="#FF0000" d="M288.043,1098.779h-48.779v-16.258h16.377v-48.9h-16.377v-16.257h32.639v65.158h16.141
			V1098.779z"/>
		<path id="path6767" fill="#FF0000" d="M380.129,1082.521c0,10.836-5.417,16.258-16.257,16.258h-48.778
			c-10.759,0-16.138-5.422-16.138-16.258v-48.9c0-2.31,0.438-4.463,1.316-6.454c0.876-1.993,2.052-3.707,3.524-5.141
			c1.473-1.435,3.188-2.571,5.142-3.408c1.951-0.836,4.004-1.255,6.154-1.255h48.778c2.229,0,4.343,0.418,6.336,1.255
			c1.994,0.836,3.728,1.994,5.201,3.467c1.475,1.476,2.63,3.209,3.465,5.201c0.838,1.992,1.255,4.104,1.255,6.334L380.129,1082.521
			L380.129,1082.521z M363.873,1082.521v-48.9h-48.778v48.9H363.873z"/>
		<path id="path6769" fill="#FF0000" d="M473.529,1082.521c0,10.836-5.418,16.258-16.257,16.258h-48.778
			c-10.758,0-16.138-5.422-16.138-16.258v-48.9c0-2.31,0.438-4.463,1.315-6.454c0.876-1.993,2.052-3.707,3.526-5.141
			c1.474-1.435,3.188-2.571,5.14-3.408c1.953-0.836,4.005-1.255,6.155-1.255h48.778c2.229,0,4.343,0.418,6.337,1.255
			c1.992,0.836,3.727,1.994,5.2,3.467c1.475,1.476,2.631,3.209,3.465,5.201c0.838,1.992,1.256,4.104,1.256,6.334V1082.521
			L473.529,1082.521z M457.272,1082.521v-48.9h-48.778v48.9H457.272z"/>
		<path id="path6771" fill="#FF0000" d="M566.928,1082.521c0,10.836-5.417,16.258-16.258,16.258h-48.777
			c-10.759,0-16.138-5.422-16.138-16.258v-48.9c0-2.31,0.438-4.463,1.316-6.454c0.875-1.993,2.051-3.707,3.524-5.141
			s3.188-2.571,5.14-3.408c1.953-0.836,4.006-1.255,6.156-1.255h48.777c2.23,0,4.344,0.418,6.337,1.255
			c1.993,0.837,3.728,1.994,5.201,3.467c1.474,1.476,2.63,3.209,3.465,5.201c0.838,1.992,1.255,4.104,1.255,6.334L566.928,1082.521
			L566.928,1082.521z M550.671,1082.521v-48.9h-48.777v48.9H550.671z"/>
	</g>
</g>
</svg>
